REM DIRINDEX 1\4,1\2\5,1\2\6,1\2\7,1\3\8,1\3\9,1\3\10,1\3\11
REM DIRNAME folder01,folder02,folder03,folder04,folder05,folder06,folder07,folder08,folder09,folder10,folder11
TITLE ""
FILE "t_j_25.mp3" MP3
  TRACK 01 AUDIO
    TITLE "8:cjc108_2261"
    INDEX 01 00:00:00
  TRACK 02 AUDIO
    TITLE "0:"
    INDEX 01 00:03:12
  TRACK 03 AUDIO
    TITLE "9:cjc108_2262"
    INDEX 01 00:04:31
  TRACK 04 AUDIO
    TITLE "0:"
    INDEX 01 00:05:36
  TRACK 05 AUDIO
    TITLE "10:cjc108_2263"
    INDEX 01 00:05:38
  TRACK 06 AUDIO
    TITLE "0:"
    INDEX 01 00:06:53
  TRACK 07 AUDIO
    TITLE "9:cjc108_2264"
    INDEX 01 00:07:29
  TRACK 08 AUDIO
    TITLE "0:"
    INDEX 01 00:08:50
  TRACK 09 AUDIO
    TITLE "10:cjc108_2265"
    INDEX 01 00:08:60
  TRACK 10 AUDIO
    TITLE "0:"
    INDEX 01 00:09:71
  TRACK 11 AUDIO
    TITLE "9:cjc108_2266"
    INDEX 01 00:10:45
  TRACK 12 AUDIO
    TITLE "0:"
    INDEX 01 00:11:56
  TRACK 13 AUDIO
    TITLE "10:cjc108_2267"
    INDEX 01 00:11:58
  TRACK 14 AUDIO
    TITLE "0:"
    INDEX 01 00:12:67
  TRACK 15 AUDIO
    TITLE "11:cjc108_2268"
    INDEX 01 00:13:41
  TRACK 16 AUDIO
    TITLE "0:"
    INDEX 01 00:27:06
  TRACK 17 AUDIO
    TITLE "9:cjc108_2269"
    INDEX 01 00:28:60
  TRACK 18 AUDIO
    TITLE "0:"
    INDEX 01 00:30:10
  TRACK 19 AUDIO
    TITLE "10:cjc108_2270"
    INDEX 01 00:30:12
  TRACK 20 AUDIO
    TITLE "0:"
    INDEX 01 00:32:11
  TRACK 21 AUDIO
    TITLE "9:cjc108_2271"
    INDEX 01 00:32:60
  TRACK 22 AUDIO
    TITLE "0:"
    INDEX 01 00:33:71
  TRACK 23 AUDIO
    TITLE "10:cjc108_2272"
    INDEX 01 00:33:73
  TRACK 24 AUDIO
    TITLE "0:"
    INDEX 01 00:36:15
  TRACK 25 AUDIO
    TITLE "9:cjc108_2273"
    INDEX 01 00:36:64
  TRACK 26 AUDIO
    TITLE "0:"
    INDEX 01 00:38:24
  TRACK 27 AUDIO
    TITLE "10:cjc108_2274"
    INDEX 01 00:38:33
  TRACK 28 AUDIO
    TITLE "0:"
    INDEX 01 00:40:11
  TRACK 29 AUDIO
    TITLE "9:cjc108_2275"
    INDEX 01 00:40:68
  TRACK 30 AUDIO
    TITLE "0:"
    INDEX 01 00:41:65
  TRACK 31 AUDIO
    TITLE "10:cjc108_2276"
    INDEX 01 00:41:67
  TRACK 32 AUDIO
    TITLE "0:"
    INDEX 01 00:43:05
  TRACK 33 AUDIO
    TITLE "9:cjc108_2277"
    INDEX 01 00:43:54
  TRACK 34 AUDIO
    TITLE "0:"
    INDEX 01 00:45:30
  TRACK 35 AUDIO
    TITLE "10:cjc108_2278"
    INDEX 01 00:45:37
  TRACK 36 AUDIO
    TITLE "0:"
    INDEX 01 00:47:03
  TRACK 37 AUDIO
    TITLE "9:cjc108_2279"
    INDEX 01 00:47:54
  TRACK 38 AUDIO
    TITLE "0:"
    INDEX 01 00:48:55
  TRACK 39 AUDIO
    TITLE "10:cjc108_2280"
    INDEX 01 00:48:61
  TRACK 40 AUDIO
    TITLE "0:"
    INDEX 01 00:50:42
  TRACK 41 AUDIO
    TITLE "9:cjc108_2281"
    INDEX 01 00:51:22
  TRACK 42 AUDIO
    TITLE "0:"
    INDEX 01 00:52:53
  TRACK 43 AUDIO
    TITLE "10:cjc108_2282"
    INDEX 01 00:52:65
  TRACK 44 AUDIO
    TITLE "0:"
    INDEX 01 00:54:62
  TRACK 45 AUDIO
    TITLE "9:cjc108_2283"
    INDEX 01 00:55:38
  TRACK 46 AUDIO
    TITLE "0:"
    INDEX 01 00:56:71
  TRACK 47 AUDIO
    TITLE "10:cjc108_2284"
    INDEX 01 00:57:07
  TRACK 48 AUDIO
    TITLE "0:"
    INDEX 01 00:58:36
  TRACK 49 AUDIO
    TITLE "9:cjc108_2285"
    INDEX 01 00:59:14
  TRACK 50 AUDIO
    TITLE "0:"
    INDEX 01 01:00:57
  TRACK 51 AUDIO
    TITLE "10:cjc108_2286"
    INDEX 01 01:00:60
  TRACK 52 AUDIO
    TITLE "0:"
    INDEX 01 01:02:32
  TRACK 53 AUDIO
    TITLE "11:cjc108_2287"
    INDEX 01 01:03:02
  TRACK 54 AUDIO
    TITLE "0:"
    INDEX 01 01:17:00
  TRACK 55 AUDIO
    TITLE "9:cjc108_2288"
    INDEX 01 01:18:54
  TRACK 56 AUDIO
    TITLE "0:"
    INDEX 01 01:20:38
  TRACK 57 AUDIO
    TITLE "10:cjc108_2289"
    INDEX 01 01:20:55
  TRACK 58 AUDIO
    TITLE "0:"
    INDEX 01 01:22:35
  TRACK 59 AUDIO
    TITLE "9:cjc108_2290"
    INDEX 01 01:23:16
  TRACK 60 AUDIO
    TITLE "0:"
    INDEX 01 01:24:30
  TRACK 61 AUDIO
    TITLE "10:cjc108_2291"
    INDEX 01 01:24:36
  TRACK 62 AUDIO
    TITLE "0:"
    INDEX 01 01:26:23
  TRACK 63 AUDIO
    TITLE "11:cjc108_2292"
    INDEX 01 01:26:72
  TRACK 64 AUDIO
    TITLE "0:"
    INDEX 01 01:35:35
